<svg version="1.1" id="Layer_1" xmlns="http://www.w3.org/2000/svg" xmlns:xlink="http://www.w3.org/1999/xlink" x="0px" y="0px"
	 width="100%" viewBox="0 0 1789 140" enable-background="new 0 0 1789 140" xml:space="preserve">
<path fill="#07AAE2" opacity="1.000000" stroke="none" 
	d="
M1.000000,119.000000 
	C1.000000,79.684402 1.000000,40.368801 1.000000,1.000000 
	C269.028046,1.000000 537.056091,1.000000 805.201660,1.267194 
	C805.780457,1.986147 806.163025,2.667813 806.714233,2.856088 
	C820.753357,7.651394 830.048096,17.559589 836.107422,30.661118 
	C838.656860,36.173618 840.040466,42.215935 842.439453,47.809181 
	C848.814209,62.671787 860.526306,71.816513 875.449097,76.916573 
	C888.167175,81.263161 901.173767,81.273674 914.067017,77.429115 
	C924.446838,74.334007 933.622864,68.876457 940.558594,60.624645 
	C946.362549,53.719479 950.413574,45.735004 952.872559,36.738556 
	C957.316223,20.481138 967.936035,9.258551 983.651001,2.936553 
	C984.261536,2.690965 984.557495,1.663263 985.000000,0.999997 
	C1253.212402,1.000000 1521.424683,1.000000 1790.000000,1.000000 
	C1790.000000,40.027279 1790.000000,79.055687 1789.822754,118.210938 
	C1789.250000,118.781006 1788.691650,119.158913 1788.483765,119.677345 
	C1785.412354,127.338448 1781.302490,134.025589 1773.226685,137.469757 
	C1771.892090,138.039017 1771.062866,139.793381 1770.000000,141.000031 
	C1188.305298,141.000000 606.610596,141.000000 24.798695,140.725876 
	C24.359175,140.071457 24.100630,139.450836 23.705250,139.345932 
	C13.056134,136.520355 6.132089,129.832504 2.721788,119.387680 
	C2.628369,119.101562 1.595038,119.122337 1.000000,119.000000 
z"/>
<path fill="#000000" opacity="1.000000" stroke="none" 
	d="
M984.531372,0.999997 
	C984.557495,1.663263 984.261536,2.690965 983.651001,2.936553 
	C967.936035,9.258551 957.316223,20.481138 952.872559,36.738556 
	C950.413574,45.735004 946.362549,53.719479 940.558594,60.624645 
	C933.622864,68.876457 924.446838,74.334007 914.067017,77.429115 
	C901.173767,81.273674 888.167175,81.263161 875.449097,76.916573 
	C860.526306,71.816513 848.814209,62.671787 842.439453,47.809181 
	C840.040466,42.215935 838.656860,36.173618 836.107422,30.661118 
	C830.048096,17.559589 820.753357,7.651394 806.714233,2.856088 
	C806.163025,2.667813 805.780457,1.986147 805.659668,1.267194 
	C865.354248,1.000000 924.708435,1.000000 984.531372,0.999997 
z"/>
<path fill="#000000" opacity="1.000000" stroke="none" 
	d="
M1.000000,119.468781 
	C1.595038,119.122337 2.628369,119.101562 2.721788,119.387680 
	C6.132089,129.832504 13.056134,136.520355 23.705250,139.345932 
	C24.100630,139.450836 24.359175,140.071457 24.340742,140.725876 
	C16.408718,141.000000 8.817437,141.000000 1.000000,141.000000 
	C1.000000,133.980804 1.000000,126.959183 1.000000,119.468781 
z"/>
<path fill="#000000" opacity="1.000000" stroke="none" 
	d="
M1770.469116,141.000031 
	C1771.062866,139.793381 1771.892090,138.039017 1773.226685,137.469757 
	C1781.302490,134.025589 1785.412354,127.338448 1788.483765,119.677345 
	C1788.691650,119.158913 1789.250000,118.781006 1789.822754,118.668884 
	C1790.000000,126.255913 1790.000000,133.511826 1790.000000,141.000000 
	C1783.647949,141.000000 1777.292969,141.000000 1770.469116,141.000031 
z"/>
</svg>